<svg width="50" height="54" viewBox="0 0 50 54" fill="none" xmlns="http://www.w3.org/2000/svg">
<path fill-rule="evenodd" clip-rule="evenodd" d="M34.2861 6.07712C29.7858 4.6389 24.9377 4.64101 20.4387 6.08315C15.94 7.52517 12.027 10.3309 9.25623 14.0911C6.48585 17.8507 4.99792 22.3729 5 27.0097C5.00208 31.6465 6.49408 36.1675 9.26784 39.9247C12.042 43.6824 15.9575 46.4848 20.4575 47.9229C24.9578 49.3611 29.806 49.359 34.305 47.9169C36.5541 47.1959 38.657 46.134 40.5441 44.7822C42.4312 43.4304 44.102 41.789 45.4874 39.9089L49.5126 42.875C47.8126 45.1821 45.7647 47.1929 43.4559 48.8469C41.147 50.5008 38.5767 51.7982 35.8312 52.6782C30.341 54.4381 24.4272 54.4407 18.9354 52.6856C13.4433 50.9304 8.64942 47.5054 5.24528 42.8943C1.84071 38.2827 0.00256616 32.723 2.68491e-06 27.012C-0.00256079 21.301 1.83059 15.7396 5.23103 11.125C8.63104 6.51093 13.4218 3.08175 18.9124 1.32178C24.4026 -0.438077 30.3164 -0.44065 35.8082 1.31442C38.5623 2.19457 41.1405 3.49449 43.4559 5.15311C45.7582 6.80239 47.8011 8.80663 49.4983 11.1057L45.4758 14.0753C44.0926 12.2018 42.4259 10.5658 40.5441 9.21781C38.6517 7.86218 36.5422 6.79813 34.2861 6.07712Z" fill="black"/>
<path fill-rule="evenodd" clip-rule="evenodd" d="M31.4 32.2598V8.90833L37.4 12V32.2598C37.4 36.4236 36.0052 39.5662 33.416 41.5568C30.9762 43.4325 27.9505 43.9083 25.4 43.9083C22.5535 43.9083 19.5807 43.0153 17.2684 41.048C14.8897 39.0241 13.4 36.0164 13.4 32.2598V25.3411H19.4V32.2598C19.4 34.3141 20.1603 35.6306 21.1565 36.4782C22.2193 37.3825 23.7465 37.9083 25.4 37.9083C27.3495 37.9083 28.8238 37.519 29.759 36.8C30.5448 36.1959 31.4 35.0143 31.4 32.2598Z" fill="black"/>
</svg>
